# xmcd CD database file
#
# Track frame offsets:
#	150
#	32325
#	64080
#	105220
#	134198
#	160933
#	197053
#	219721
#	243401
#
# Disc length: 3695 seconds
#
# Revision: 0
# Processed by: cddbd v1.5.2PL0 Copyright (c) Steve Scherf et al.
# Submitted via: CDex 1.51
#
DISCID=7c0e6d09
DTITLE=Yellow6 - Melt Inside
DYEAR=1900
DGENRE=Jazz
TTITLE0=Pacific Rough
TTITLE1=Between Two
TTITLE2=Solone
TTITLE3=Never Stay Too Long
TTITLE4=As Seen From Above
TTITLE5=STHLM
TTITLE6=Long Saturday
TTITLE7=On Returning
TTITLE8=Ten
EXTD=
EXTT0=
EXTT1=
EXTT2=
EXTT3=
EXTT4=
EXTT5=
EXTT6=
EXTT7=
EXTT8=
PLAYORDER=
